<svg width="202" height="38" viewBox="0 0 202 38" fill="none" xmlns="http://www.w3.org/2000/svg">
<path fill-rule="evenodd" clip-rule="evenodd" d="M35.7742 9.95974C34.1722 7.19607 31.8448 4.91763 29.0411 3.36822C26.182 1.78011 22.9549 0.963648 19.6804 0.999938C16.3968 0.965848 13.1608 1.78201 10.2903 3.36822C7.47184 4.91419 5.12842 7.19244 3.51029 9.95974C1.81894 12.8449 0.951025 16.1343 1.00003 19.4737C0.950074 22.8169 1.81798 26.1103 3.51029 28.9993C5.13494 31.7681 7.47889 34.0509 10.2962 35.6083C13.1609 37.2062 16.3961 38.0307 19.6804 37.9999C22.9491 38.025 26.1677 37.2006 29.0176 35.6083C31.8273 34.0509 34.1618 31.7674 35.7742 28.9993C37.4494 26.1046 38.3066 22.8133 38.2552 19.4737C38.3054 16.138 37.4482 12.8507 35.7742 9.95974ZM12.8832 31.1343C14.9527 32.2918 17.289 32.8948 19.6632 32.8842C22.0221 32.8996 24.3445 32.3046 26.4023 31.1576C28.4392 30.0226 30.1325 28.3647 31.3055 26.3569C32.5108 24.2672 33.1306 21.8943 33.1002 19.4854V18.1554H30.4374V19.4854C30.4644 21.4252 29.9682 23.3367 29.0005 25.0211C28.0668 26.6217 26.7177 27.9433 25.0943 28.8477C23.4232 29.7585 21.5483 30.236 19.6427 30.236C17.7371 30.236 15.8622 29.7585 14.1911 28.8477C12.5657 27.9374 11.2119 26.615 10.2674 25.0152C9.29061 23.3361 8.78995 21.425 8.81867 19.4854V18.1554H6.15005V19.4854C6.12533 21.8918 6.75561 24.2602 7.9741 26.3394C9.15266 28.3434 10.8472 29.9985 12.8832 31.1343Z" fill="white"/>
<path d="M49.2581 15.6412C49.6487 14.9122 50.2374 14.3069 50.957 13.8944C51.6767 13.4818 52.4984 13.2787 53.3285 13.308C56.695 13.308 59.1232 15.9796 59.1232 19.4736C59.1232 22.9677 56.7185 25.6918 53.3285 25.6918C52.5158 25.7157 51.7112 25.5254 50.9964 25.1402C50.2815 24.755 49.6818 24.1886 49.2581 23.4986V30.3701H46.5895V13.5704H49.2581V15.6412ZM52.8182 23.0902C53.2883 23.0904 53.7538 22.9969 54.1869 22.8152C54.6201 22.6335 55.0123 22.3673 55.3403 22.0324C55.6684 21.6974 55.9256 21.3005 56.0968 20.865C56.2681 20.4296 56.3498 19.9644 56.3373 19.497C56.3373 18.561 55.9634 17.6634 55.298 17.0015C54.6325 16.3397 53.73 15.9679 52.7889 15.9679C51.8478 15.9679 50.9453 16.3397 50.2798 17.0015C49.6143 17.6634 49.2405 18.561 49.2405 19.497C49.2278 19.9693 49.3113 20.4394 49.4862 20.8787C49.661 21.3181 49.9235 21.7177 50.2578 22.0535C50.5921 22.3893 50.9913 22.6542 51.4314 22.8324C51.8714 23.0106 52.3432 23.0983 52.8182 23.0902Z" fill="white"/>
<path d="M61.217 14.0779C62.2915 13.5933 63.4566 13.3389 64.6364 13.3313C67.5689 13.3313 69.5044 14.7488 69.5044 18.1029V25.4294H66.8417V24.3327C66.4912 24.7679 66.0439 25.1161 65.535 25.35C65.026 25.5838 64.4695 25.6968 63.9091 25.6802C63.3794 25.7138 62.8484 25.6369 62.3503 25.4543C61.8522 25.2718 61.398 24.9876 61.0169 24.6201C60.6358 24.2526 60.3362 23.8099 60.1373 23.3204C59.9385 22.8309 59.8448 22.3054 59.8622 21.7778C59.8598 21.2502 59.9659 20.7278 60.174 20.2425C60.3822 19.7573 60.6879 19.3196 61.0725 18.9562C61.457 18.5929 61.9123 18.3116 62.4102 18.1297C62.9081 17.9479 63.4382 17.8692 63.9678 17.8987C65.0333 17.8922 66.0597 18.298 66.8299 19.0303V18.0562C66.8299 16.3646 65.6569 15.7229 64.3314 15.7229C63.222 15.7419 62.1397 16.067 61.2053 16.6621L61.217 14.0779ZM64.6598 23.6911C65.1995 23.723 65.7298 23.5407 66.1344 23.1842C66.5391 22.8277 66.785 22.3261 66.8182 21.7894C66.7864 21.2499 66.5419 20.7445 66.1379 20.383C65.7338 20.0216 65.2027 19.8332 64.6598 19.8587C64.1193 19.8333 63.5908 20.0224 63.1905 20.3845C62.7902 20.7466 62.5508 21.2519 62.5249 21.7894C62.5567 22.3224 62.7989 22.8212 63.1988 23.1774C63.5986 23.5335 64.1238 23.7182 64.6598 23.6911Z" fill="white"/>
<path d="M83.4986 13.5704V24.2744C83.4986 28.3576 81.0059 30.6092 77.0763 30.6092C75.6495 30.6243 74.2405 30.2939 72.9707 29.6467V26.876C74.1921 27.6725 75.6159 28.1074 77.0763 28.1301C79.2581 28.1301 80.8358 26.7301 80.8358 24.5835V23.2127C80.3832 23.8781 79.7705 24.4203 79.0535 24.7901C78.3364 25.16 77.5378 25.3456 76.7302 25.3302C73.434 25.3302 71.0352 22.7519 71.0352 19.357C71.0352 15.9621 73.434 13.3313 76.7068 13.3313C77.5272 13.308 78.3398 13.4954 79.0662 13.8755C79.7925 14.2556 80.4081 14.8155 80.8534 15.5012V13.5704H83.4986ZM77.2464 15.9329C76.5668 15.9306 75.9018 16.1291 75.3358 16.5031C74.7697 16.8772 74.3281 17.41 74.067 18.034C73.8058 18.6581 73.7369 19.3451 73.8689 20.0082C74.0009 20.6712 74.328 21.2803 74.8085 21.7582C75.2891 22.2362 75.9015 22.5614 76.5682 22.6927C77.2348 22.824 77.9257 22.7555 78.5531 22.4957C79.1805 22.236 79.7162 21.7968 80.0924 21.2339C80.4685 20.6709 80.668 20.0095 80.6657 19.3336C80.6745 18.8847 80.592 18.4385 80.4233 18.022C80.2546 17.6054 80.003 17.2271 79.6837 16.9095C79.3645 16.592 78.984 16.3418 78.5652 16.174C78.1464 16.0062 77.6978 15.9242 77.2464 15.9329Z" fill="white"/>
<path d="M87.217 8.31474C87.543 8.31474 87.8617 8.41087 88.1327 8.59098C88.4037 8.77109 88.6149 9.02709 88.7397 9.3266C88.8644 9.62611 88.8971 9.95569 88.8335 10.2736C88.7699 10.5916 86.6129 11.1129 88.3824 11.1129C88.1519 11.3421 87.8583 11.4983 87.5386 11.5615C87.2189 11.6247 86.8875 11.5923 86.5863 11.4682C86.2852 11.3442 86.0278 11.1341 85.8467 10.8645C85.6656 10.595 85.569 10.2781 85.569 9.95387C85.5674 9.73818 85.609 9.52434 85.6912 9.32477C85.7735 9.1252 85.8948 8.94389 86.0482 8.79137C86.2015 8.63885 86.3838 8.51817 86.5845 8.43635C86.7852 8.35453 87.0002 8.31319 87.217 8.31474ZM88.5484 25.4294H85.8681V13.5705H88.5308L88.5484 25.4294Z" fill="white"/>
<path d="M93.5279 15.2562C93.8454 14.654 94.3279 14.1536 94.9196 13.813C95.5112 13.4723 96.1878 13.3053 96.871 13.3312C99.5161 13.3312 101.211 15.2562 101.211 17.9103V25.4293H98.5425V18.5811C98.5425 16.9945 97.5983 15.9095 96.0264 15.9095C94.4546 15.9095 93.5748 16.9187 93.5279 18.4411V25.441H90.8651V13.5704H93.5279V15.2562Z" fill="white"/>
<path d="M105.399 20.3894C105.53 21.2389 105.976 22.0089 106.649 22.5485C107.322 23.088 108.173 23.3582 109.035 23.306C110.53 23.2881 111.986 22.8337 113.223 21.9994V24.6243C111.885 25.349 110.383 25.7225 108.859 25.7093C108.039 25.7317 107.224 25.586 106.463 25.2813C105.702 24.9767 105.013 24.5196 104.437 23.9385C103.862 23.3575 103.413 22.6648 103.118 21.9037C102.824 21.1426 102.689 20.3293 102.724 19.5144C102.724 16.0145 105.27 13.3487 108.713 13.3487C109.468 13.3308 110.22 13.4667 110.921 13.7482C111.622 14.0298 112.257 14.4509 112.789 14.9858C113.32 15.5207 113.735 16.158 114.01 16.8586C114.284 17.5591 114.412 18.3081 114.384 19.0595C114.382 19.5137 114.325 19.9661 114.214 20.4069L105.399 20.3894ZM105.399 18.342H111.821C111.774 16.6795 110.437 15.5479 108.695 15.5479C107.894 15.5212 107.112 15.793 106.503 16.3098C105.893 16.8267 105.499 17.5514 105.399 18.342Z" fill="white"/>
<path d="M118.601 15.087C118.915 14.5364 119.374 14.0819 119.93 13.7733C120.485 13.4647 121.115 13.3138 121.751 13.3371C122.537 13.2906 123.318 13.4849 123.989 13.8938C124.66 14.3027 125.189 14.9064 125.504 15.6237C125.79 14.919 126.289 14.3202 126.932 13.9104C127.575 13.5006 128.331 13.3002 129.094 13.3371C131.44 13.3371 133.258 15.087 133.258 17.7236V25.4293H130.619V18.4295C130.619 16.8137 129.675 15.8979 128.314 15.8979C126.953 15.8979 125.927 16.8253 125.927 18.4411V25.441H123.264V18.4411C123.264 16.8253 122.32 15.9095 120.959 15.9095C120.644 15.8923 120.329 15.9418 120.034 16.0549C119.74 16.1679 119.473 16.3418 119.251 16.5652C119.029 16.7885 118.858 17.0562 118.748 17.3504C118.638 17.6446 118.592 17.9588 118.613 18.272V25.4293H115.956V13.5704H118.625L118.601 15.087Z" fill="white"/>
<path d="M137.475 20.3895C137.608 21.2384 138.054 22.0076 138.726 22.5469C139.399 23.0862 140.249 23.3569 141.111 23.3061C142.6 23.2847 144.05 22.8305 145.282 21.9994V24.6244C143.943 25.3491 142.442 25.7225 140.918 25.7093C140.098 25.7317 139.283 25.586 138.523 25.2814C137.762 24.9767 137.073 24.5195 136.498 23.9383C135.923 23.3571 135.475 22.6644 135.18 21.9033C134.886 21.1422 134.753 20.3291 134.789 19.5145C134.789 16.0146 137.334 13.3488 140.771 13.3488C141.526 13.3293 142.278 13.4635 142.979 13.7433C143.68 14.023 144.316 14.4423 144.848 14.9755C145.381 15.5087 145.798 16.1444 146.074 16.8437C146.35 17.543 146.48 18.2911 146.455 19.042C146.455 19.4965 146.398 19.9492 146.284 20.3895H137.475ZM137.475 18.342H143.874C143.827 16.6795 142.496 15.5479 140.748 15.5479C139.947 15.5213 139.165 15.793 138.555 16.3099C137.946 16.8267 137.552 17.5515 137.452 18.342H137.475Z" fill="white"/>
<path d="M157.17 23.4985C156.733 24.1841 156.125 24.7461 155.406 25.1302C154.687 25.5144 153.881 25.7078 153.065 25.6918C149.669 25.6918 147.27 22.9677 147.27 19.4969C147.27 16.0262 149.669 13.3312 153.088 13.3312C153.897 13.3131 154.697 13.5034 155.41 13.8837C156.123 14.2639 156.726 14.8211 157.158 15.5012V8.79883H159.798V25.4293H157.158L157.17 23.4985ZM153.61 15.9153C153.138 15.909 152.67 15.997 152.234 16.1741C151.797 16.3512 151.401 16.6138 151.068 16.9462C150.735 17.2787 150.473 17.6742 150.297 18.1094C150.122 18.5446 150.035 19.0105 150.044 19.4794C150.025 19.9569 150.102 20.4333 150.273 20.8802C150.443 21.327 150.702 21.735 151.035 22.0797C151.368 22.4243 151.767 22.6986 152.209 22.8859C152.651 23.0732 153.127 23.1698 153.607 23.1698C154.088 23.1698 154.563 23.0732 155.005 22.8859C155.447 22.6986 155.846 22.4243 156.179 22.0797C156.512 21.735 156.771 21.327 156.942 20.8802C157.112 20.4333 157.19 19.9569 157.17 19.4794C157.176 19.0124 157.089 18.5489 156.912 18.1162C156.735 17.6834 156.474 17.2902 156.142 16.9597C155.81 16.6292 155.415 16.3681 154.98 16.1917C154.545 16.0154 154.08 15.9273 153.61 15.9328V15.9153Z" fill="white"/>
<path d="M163.463 8.31474C163.789 8.31474 164.108 8.41087 164.379 8.59098C164.65 8.77109 164.861 9.02709 164.986 9.3266C165.111 9.62611 165.143 9.95569 165.08 10.2736C165.016 10.5916 164.859 10.8837 164.629 11.1129C164.398 11.3421 164.105 11.4983 163.785 11.5615C163.465 11.6247 163.134 11.5923 162.833 11.4682C162.532 11.3442 162.274 11.1341 162.093 10.8645C161.912 10.595 161.815 10.2781 161.815 9.95387C161.814 9.73818 161.855 9.52434 161.938 9.32477C162.02 9.1252 162.141 8.94389 162.295 8.79137C162.448 8.63885 162.63 8.51817 162.831 8.43635C163.031 8.35453 163.247 8.31319 163.463 8.31474ZM164.795 25.4294H162.126V13.5705H164.795V25.4294Z" fill="white"/>
<path d="M175.51 24.9977C174.626 25.4544 173.644 25.6925 172.648 25.6918C171.823 25.7159 171.001 25.5723 170.233 25.2698C169.465 24.9673 168.767 24.5122 168.182 23.9324C167.597 23.3527 167.136 22.6603 166.829 21.8977C166.522 21.1351 166.375 20.3182 166.396 19.497C166.373 18.6746 166.52 17.8562 166.828 17.0927C167.136 16.3292 167.599 15.6368 168.187 15.0586C168.776 14.4804 169.478 14.0287 170.249 13.7316C171.02 13.4344 171.845 13.2982 172.672 13.3313C173.663 13.3266 174.642 13.5481 175.534 13.9788V16.8254C174.703 16.223 173.7 15.9019 172.672 15.9096C171.739 15.9469 170.858 16.3415 170.211 17.0108C169.565 17.68 169.204 18.572 169.204 19.4999C169.204 20.4278 169.565 21.3198 170.211 21.989C170.858 22.6582 171.739 23.0528 172.672 23.0902C173.701 23.1055 174.707 22.7837 175.534 22.1744L175.51 24.9977Z" fill="white"/>
<path d="M180.15 15.2562C180.468 14.6549 180.951 14.1553 181.542 13.8148C182.134 13.4742 182.81 13.3066 183.493 13.3312C186.132 13.3312 187.833 15.2562 187.833 17.9103V25.4293H185.164V18.5811C185.164 16.9945 184.22 15.9095 182.666 15.9095C182.328 15.8933 181.992 15.948 181.677 16.0699C181.362 16.1918 181.077 16.3782 180.84 16.617C180.602 16.8559 180.418 17.1417 180.299 17.456C180.18 17.7703 180.129 18.1059 180.15 18.4411V25.441H177.481V8.79883H180.15V15.2562Z" fill="white"/>
<path d="M192.038 20.3896C192.168 21.2386 192.613 22.0085 193.285 22.5482C193.956 23.0878 194.807 23.3582 195.669 23.3062C197.153 23.2825 198.598 22.8284 199.827 21.9995V24.6245C198.489 25.3499 196.987 25.7234 195.463 25.7094C194.644 25.7318 193.829 25.5861 193.068 25.2814C192.308 24.9767 191.619 24.5196 191.044 23.9384C190.469 23.3572 190.02 22.6645 189.726 21.9034C189.432 21.1423 189.299 20.3291 189.334 19.5146C189.334 16.0146 191.88 13.3489 195.323 13.3489C196.077 13.3302 196.828 13.465 197.528 13.7451C198.229 14.0252 198.864 14.4447 199.396 14.9778C199.927 15.5109 200.344 16.1463 200.62 16.8452C200.896 17.5441 201.025 18.2917 201 19.0421C200.999 19.4961 200.944 19.9485 200.836 20.3896H192.038ZM192.009 18.3421H198.46C198.408 16.6796 197.076 15.548 195.328 15.548C194.524 15.5167 193.737 15.7863 193.123 16.3035C192.508 16.8206 192.111 17.548 192.009 18.3421Z" fill="white"/>
</svg>
